<svg width="56" height="56" viewBox="0 0 56 56" fill="none" xmlns="http://www.w3.org/2000/svg">
<path d="M28.7701 40.8046L21.0923 42.3403L16.7746 43.2034C14.4094 43.6766 12.3239 41.5911 12.797 39.226L13.6601 34.9094L15.1958 27.2305L28.7701 40.8046Z" fill="#5AD6FF"/>
<path d="M15.1959 27.2305L13.6602 34.9095L18.6687 37.332L21.0923 42.3404L28.7701 40.8047L15.1959 27.2305Z" fill="#2ECEFB"/>
<path d="M55.7647 4.60601L40.826 43.2404L36.728 53.8389C35.6621 56.596 31.8209 56.7526 30.5331 54.0924L24.5715 32.9992C24.4059 32.6567 24.1839 32.3468 23.918 32.0821L32.8441 20.6071L35.4221 17.4714L55.0018 0.998169C55.8852 1.88148 56.2931 3.23817 55.7647 4.60601Z" fill="#83DEFF"/>
<path d="M40.8265 43.2407L36.7284 53.8392C35.6626 56.5963 31.8213 56.7529 30.5335 54.0927L21.7121 35.8593C21.5465 35.5168 21.3245 35.2069 21.0586 34.9422L32.8445 20.6074C32.7521 27.216 34.6901 34.9691 40.8265 43.2407Z" fill="#5AD6FF"/>
<path d="M55.0018 0.998155L32.906 23.0939L21.0582 34.9419C20.7934 34.6759 20.4835 34.454 20.1409 34.2883L1.90769 25.4669C-0.752531 24.179 -0.596016 20.338 2.16122 19.272L36.443 6.01672L51.394 0.235264C52.7618 -0.293126 54.1185 0.114733 55.0018 0.998155Z" fill="#A4E7FF"/>
<path d="M32.906 23.0939L21.0582 34.9419C20.7934 34.6759 20.4835 34.454 20.1409 34.2883L1.90769 25.4669C-0.752531 24.179 -0.596016 20.338 2.16122 19.272L36.443 6.01672C34.4068 10.1463 32.4576 16.0618 32.906 23.0939Z" fill="#83DEFF"/>
<path d="M44.1199 49.2096C50.211 49.2096 55.1489 44.2717 55.1489 38.1805C55.1489 32.0894 50.211 27.1515 44.1199 27.1515C38.0287 27.1515 33.0908 32.0894 33.0908 38.1805C33.0908 44.2717 38.0287 49.2096 44.1199 49.2096Z" fill="#F1F2F5"/>
<path d="M49.5055 47.8061C47.9134 48.6997 46.0756 49.2089 44.1195 49.2089C38.0294 49.2089 33.0908 44.2714 33.0908 38.1802C33.0908 32.0889 38.0294 27.1515 44.1195 27.1515C44.1196 27.1515 39.4897 37.7363 49.5055 47.8061Z" fill="#E8E9EA"/>
<path d="M55.2311 34.0517L46.4739 42.6759C46.2812 42.8651 46.0716 43.0263 45.8497 43.1581C44.5562 43.9368 42.8559 43.7723 41.7348 42.6657L37.1872 38.1722C36.19 37.1761 36.1956 35.5637 37.1872 34.5733C38.181 33.5794 39.7923 33.5794 40.7861 34.5733L43.4903 37.2764L43.5263 37.3125C43.8543 37.6415 44.3871 37.6426 44.7173 37.3158L51.6537 30.4313C52.6521 29.4443 54.2554 29.4543 55.2424 30.4414C56.2406 31.4398 56.2351 33.0601 55.2311 34.0517Z" fill="#ACE094"/>
<path d="M45.8487 43.1581C44.5552 43.9368 42.8549 43.7723 41.7338 42.6657L37.1862 38.1722C36.189 37.1761 36.1946 35.5637 37.1862 34.5733C38.18 33.5794 39.7913 33.5794 40.7851 34.5733L43.4893 37.2764C43.8962 39.1232 44.6273 41.1153 45.8487 43.1581Z" fill="#8DD470"/>
</svg>
