<svg width="162" height="162" viewBox="0 0 162 162" fill="none" xmlns="http://www.w3.org/2000/svg">
<g opacity="0.2" clip-path="url(#clip0_2710_32020)">
<path d="M-0.000488281 127.862L53.9994 159.039L162 96.6851L161.999 34.1375L107.999 2.96075L-0.000488281 65.5084V127.862Z" fill="#2DB357"/>
<path d="M-0.000488281 65.5084L53.9994 96.6851L161.999 34.1375L162 96.6851L53.9994 159.039L-0.000488281 127.862V65.5084Z" fill="#0E834C"/>
<path d="M53.9995 159.039V96.6851L161.999 34.1375L162 96.6851L53.9995 159.039Z" fill="#1A4541"/>
<path d="M107.999 10.0988L13.4995 64.3469L54.4942 87.7371L148.994 33.49L107.999 10.0988ZM54.487 82.4464L22.7439 64.3344L108.007 15.3898L139.749 33.5018L54.487 82.4464Z" fill="white"/>
<path d="M82.5575 57.6624C92.3395 57.6624 100.269 53.1596 100.269 47.6051C100.269 42.0507 92.3395 37.5479 82.5575 37.5479C72.7755 37.5479 64.8457 42.0507 64.8457 47.6051C64.8457 53.1596 72.7755 57.6624 82.5575 57.6624Z" fill="white"/>
<path d="M109.966 37.0573C114.194 37.0573 117.621 35.1116 117.621 32.7114C117.621 30.3113 114.194 28.3655 109.966 28.3655C105.739 28.3655 102.312 30.3113 102.312 32.7114C102.312 35.1116 105.739 37.0573 109.966 37.0573Z" fill="#5EE1EB"/>
<path d="M53.9988 69.0057C58.2263 69.0057 61.6534 67.0597 61.6534 64.6592C61.6534 62.2586 58.2263 60.3126 53.9988 60.3126C49.7713 60.3126 46.3442 62.2586 46.3442 64.6592C46.3442 67.0597 49.7713 69.0057 53.9988 69.0057Z" fill="#5EE1EB"/>
<path d="M-0.000488281 73.522V75.0467L53.9956 107.024L53.9994 105.501L-0.000488281 73.522Z" fill="#2DB357"/>
<path d="M-0.000488281 81.8949V83.4199L53.9956 115.397L53.9994 113.874L-0.000488281 81.8949Z" fill="#2DB357"/>
<path d="M-0.000488281 90.2682V91.7932L53.9956 123.771L53.9994 122.248L-0.000488281 90.2682Z" fill="#2DB357"/>
<path d="M-0.000488281 98.6415V100.167L53.9956 132.144L53.9994 130.621L-0.000488281 98.6415Z" fill="#2DB357"/>
<path d="M-0.000488281 107.015V108.54L53.9956 140.518L53.9994 138.994L-0.000488281 107.015Z" fill="#2DB357"/>
<path d="M-0.000488281 115.388V116.913L53.9956 148.891L53.9994 147.368L-0.000488281 115.388Z" fill="#2DB357"/>
<path d="M161.999 42.8473L54.003 105.503L53.9995 107.022L161.999 44.3633V42.8473Z" fill="#0E834C"/>
<path d="M161.999 51.2202L54.003 113.877L53.9995 115.395L161.999 52.7362V51.2202Z" fill="#0E834C"/>
<path d="M161.999 59.5935L54.003 122.25L53.9995 123.769L161.999 61.1095V59.5935Z" fill="#0E834C"/>
<path d="M162 67.9665L54.003 130.624L53.9995 132.142L162 69.4829V67.9665Z" fill="#0E834C"/>
<path d="M54.003 138.997L53.9995 140.516L162 77.8568V76.3398L54.003 138.997Z" fill="#0E834C"/>
<path d="M54.003 147.37L53.9995 148.889L162 86.2298V84.7127L54.003 147.37Z" fill="#0E834C"/>
</g>
<defs>
<clipPath id="clip0_2710_32020">
<rect width="162" height="162" fill="white" transform="translate(-0.000488281)"/>
</clipPath>
</defs>
</svg>